<svg xmlns="http://www.w3.org/2000/svg" version="1.1" xmlns:xlink="http://www.w3.org/1999/xlink" width="1000" height="1000"><svg version="1.1" xmlns="http://www.w3.org/2000/svg" width="1000" height="1000">
  <path d="M0 0 C1.24642273 -0.00705963 2.49284546 -0.01411926 3.77703857 -0.02139282 C7.78369284 -0.0389268 11.79019036 -0.04608551 15.796875 -0.046875 C16.48052124 -0.04716957 17.16416748 -0.04746414 17.86853027 -0.04776764 C38.90730529 -0.049232 59.67530476 0.25673574 80.546875 3.203125 C81.26544678 3.30258423 81.98401855 3.40204346 82.72436523 3.5045166 C104.30845893 6.50134502 125.49079079 10.53138876 146.546875 16.203125 C148.08093994 16.61449707 148.08093994 16.61449707 149.64599609 17.03417969 C223.12739217 37.01271745 293.16234787 73.65127802 349.42578125 125.265625 C351.43341629 127.09948684 353.48079697 128.87320775 355.546875 130.640625 C360.45716926 134.91347741 364.98048329 139.56969002 369.546875 144.203125 C372.37754018 147.04324148 375.22038235 149.87065369 378.0703125 152.69140625 C379.35421336 153.9660988 380.63806659 155.24083934 381.921875 156.515625 C382.55609375 157.14146484 383.1903125 157.76730469 383.84375 158.41210938 C388.2921033 162.83776699 392.48090314 167.42469917 396.546875 172.203125 C397.34810791 173.14442261 397.34810791 173.14442261 398.16552734 174.10473633 C423.24578363 203.81148481 444.3614867 235.89107161 462.546875 270.203125 C463.01383789 271.08355469 463.48080078 271.96398437 463.96191406 272.87109375 C489.71637886 321.85399908 506.0948062 376.3162659 513.796875 431.015625 C513.94801758 432.08570801 514.09916016 433.15579102 514.25488281 434.25830078 C514.73590813 437.90182328 515.15910345 441.54874402 515.546875 445.203125 C515.63407806 446.01884979 515.72128113 446.83457458 515.81112671 447.67501831 C517.60068821 464.997336 517.90899515 482.23670396 517.859375 499.640625 C517.85715172 501.02121982 517.85497525 502.40181471 517.85284424 503.78240967 C517.80950438 524.05820314 517.43566638 544.09744592 514.546875 564.203125 C514.44741577 564.90367004 514.34795654 565.60421509 514.2454834 566.32598877 C507.15064527 615.99122267 493.62403814 663.79131984 472.78710938 709.48046875 C471.68827943 711.89270332 470.6071879 714.31187789 469.53125 716.734375 C464.0104803 728.99555236 457.31218729 740.59468933 450.546875 752.203125 C450.02512695 753.10063477 449.50337891 753.99814453 448.96582031 754.92285156 C435.96965158 777.18901478 421.21333853 798.5117873 404.546875 818.203125 C403.68948834 819.23386306 402.83274995 820.2651406 401.9765625 821.296875 C392.99777832 832.06980113 383.56109463 842.38272898 373.546875 852.203125 C370.70659144 855.03361448 367.87930097 857.87659562 365.05859375 860.7265625 C358.73212457 867.10732908 352.44796025 873.43900015 345.546875 879.203125 C344.22816406 880.35554687 344.22816406 880.35554687 342.8828125 881.53125 C316.23610796 904.70928121 286.37874974 924.1191559 255.546875 941.203125 C254.7744043 941.63334961 254.00193359 942.06357422 253.20605469 942.50683594 C188.0627044 978.55376109 109.47394887 1000.12998093 34.83984375 1000.40625 C33.56821884 1000.41326431 32.29659393 1000.42027863 30.98643494 1000.42750549 C26.90240988 1000.44691479 22.81844152 1000.45193973 18.734375 1000.453125 C18.03873192 1000.45356686 17.34308884 1000.45400871 16.62636566 1000.45446396 C-4.22289732 1000.46141133 -24.77348335 1000.14261088 -45.453125 997.203125 C-46.73493652 997.03151855 -48.01674805 996.85991211 -49.33740234 996.68310547 C-114.67325847 987.89738727 -177.53459973 966.48346426 -234.453125 933.203125 C-235.34483398 932.68427734 -236.23654297 932.16542969 -237.15527344 931.63085938 C-259.42802221 918.63222884 -280.7563952 903.87415233 -300.453125 887.203125 C-301.48386306 886.34573834 -302.5151406 885.48899995 -303.546875 884.6328125 C-314.31980113 875.65402832 -324.63272898 866.21734463 -334.453125 856.203125 C-337.28361448 853.36284144 -340.12659562 850.53555097 -342.9765625 847.71484375 C-349.35732908 841.38837457 -355.68900015 835.10421025 -361.453125 828.203125 C-362.22140625 827.32398438 -362.9896875 826.44484375 -363.78125 825.5390625 C-386.95928121 798.89235796 -406.3691559 769.03499974 -423.453125 738.203125 C-424.09846191 737.04441895 -424.09846191 737.04441895 -424.75683594 735.86230469 C-454.47771744 682.1512659 -472.32675898 621.66425295 -479.703125 560.890625 C-479.78629974 560.20633423 -479.86947449 559.52204346 -479.95516968 558.8170166 C-481.60995117 545.03056761 -482.60440466 531.32511999 -482.65625 517.43359375 C-482.66330963 516.16629929 -482.67036926 514.89900482 -482.67764282 513.5933075 C-482.69515715 509.52570512 -482.702335 505.4582572 -482.703125 501.390625 C-482.70341957 500.69663857 -482.70371414 500.00265213 -482.70401764 499.2876358 C-482.7054687 478.12126291 -482.46947093 457.19657008 -479.453125 436.203125 C-479.35366577 435.50257996 -479.25420654 434.80203491 -479.1517334 434.08026123 C-472.05689527 384.41502733 -458.53028814 336.61493016 -437.69335938 290.92578125 C-436.59452943 288.51354668 -435.5134379 286.09437211 -434.4375 283.671875 C-428.9167303 271.41069764 -422.21843729 259.81156067 -415.453125 248.203125 C-414.93137695 247.30561523 -414.40962891 246.40810547 -413.87207031 245.48339844 C-400.87590158 223.21723522 -386.11958853 201.8944627 -369.453125 182.203125 C-368.59573834 181.17238694 -367.73899995 180.1411094 -366.8828125 179.109375 C-357.90402832 168.33644887 -348.46734463 158.02352102 -338.453125 148.203125 C-335.61284144 145.37263552 -332.78555097 142.52965438 -329.96484375 139.6796875 C-323.63837457 133.29892092 -317.35421025 126.96724985 -310.453125 121.203125 C-309.57398438 120.43484375 -308.69484375 119.6665625 -307.7890625 118.875 C-281.14235796 95.69696879 -251.28499974 76.2870941 -220.453125 59.203125 C-219.29441895 58.55778809 -219.29441895 58.55778809 -218.11230469 57.89941406 C-153.06949528 21.90812298 -74.52942987 0.28215681 0 0 Z " fill="#37ACDB" transform="translate(482.453125,-0.203125)"></path>
  <path d="M 0 0 C 4.393 3.185 6.815 6.697 8.5 11.813 C 8.76 14.943 8.76 14.943 8.774 18.53 C 8.779 19.192 8.785 19.855 8.79 20.537 C 8.805 22.751 8.806 24.964 8.806 27.177 C 8.814 28.768 8.822 30.359 8.832 31.949 C 8.854 36.271 8.862 40.592 8.867 44.913 C 8.871 47.622 8.877 50.331 8.884 53.04 C 8.909 62.519 8.922 71.998 8.926 81.477 C 8.929 90.262 8.959 99.048 9.001 107.833 C 9.036 115.407 9.051 122.981 9.052 130.555 C 9.053 135.064 9.061 139.573 9.09 144.082 C 9.294 178.126 6.228 208.95 -18.687 234.563 C -37.727 253.387 -61.796 260.086 -87.998 260.059 C -111.729 259.806 -132.875 250.215 -149.754 233.68 C -160.285 222.684 -168.661 208.657 -172.5 193.813 C -172.914 192.474 -172.914 192.474 -173.336 191.109 C -178.075 173.456 -177.231 153.113 -171.5 135.813 C -171.296 135.18 -171.093 134.547 -170.883 133.896 C -163.275 110.826 -147.002 93.378 -125.629 82.328 C -116.308 77.833 -106.828 75.33 -96.5 74.813 C -95.611 74.76 -94.721 74.707 -93.805 74.652 C -70.337 73.917 -48.801 82.947 -31.543 98.586 C -30.137 99.936 -28.808 101.367 -27.5 102.813 C -27.124 103.285 -25.979 104.713 -25.5 104.813 C -25.509 103.623 -25.518 102.434 -25.527 101.208 C -25.608 89.997 -25.668 78.785 -25.707 67.573 C -25.728 61.809 -25.756 56.045 -25.802 50.281 C -25.845 44.718 -25.869 39.155 -25.88 33.591 C -25.887 31.469 -25.901 29.347 -25.923 27.226 C -25.952 24.252 -25.956 21.28 -25.954 18.306 C -25.968 17.43 -25.983 16.554 -25.998 15.651 C -25.961 10.204 -25.107 7.144 -21.5 2.813 C -15.545 -2.845 -7.44 -2.524 0 0 Z" fill="#040B0C" transform="translate(845.5,361.1875)"></path>
  <path d="M0 0 C4.12473074 1.61918364 6.25111842 3.7875558 8.5584259 7.52310181 C10.38832936 11.93660232 10.44028511 15.58297543 10.43237305 20.31005859 C10.44766052 21.68662628 10.44766052 21.68662628 10.46325684 23.09100342 C10.49333817 26.11021061 10.50264544 29.12910026 10.51171875 32.1484375 C10.52856902 34.247376 10.54671973 36.34630443 10.56611633 38.44522095 C10.61358451 43.95905409 10.64341459 49.4728464 10.66955566 54.98681641 C10.69937712 60.61759504 10.74590206 66.24823304 10.79101562 71.87890625 C10.87701263 82.91919722 10.94437406 93.95951716 11 105 C11.67859573 104.31238586 12.35719147 103.62477173 13.05635071 102.9163208 C13.95081406 102.01484314 14.8452774 101.11336548 15.7668457 100.18457031 C16.65169144 99.29070618 17.53653717 98.39684204 18.44819641 97.47589111 C21.49719403 94.51759678 24.624889 92.04593826 28.1875 89.75 C29.12734741 89.13415039 29.12734741 89.13415039 30.08618164 88.50585938 C43.46562388 80.04270826 57.16296636 76.65066154 72.875 76.75 C74.09058594 76.74226563 75.30617188 76.73453125 76.55859375 76.7265625 C99.76234495 76.77662453 118.75490482 85.80112131 135 102 C135.73089844 102.70769531 136.46179688 103.41539062 137.21484375 104.14453125 C153.99330545 121.52103712 160.54043686 146.64931588 160.35351562 170.20776367 C159.70177078 195.71193605 150.09248491 219.03598244 132 237 C120.15259339 248.04932347 106.67675683 254.87556647 91 259 C89.84113281 259.35707031 88.68226563 259.71414063 87.48828125 260.08203125 C65.25353491 265.55093382 38.94748948 260.56177783 19.5625 248.875 C-3.23223102 233.63471874 -17.10020989 212.81966195 -23 186 C-24.33076483 177.36930488 -24.16193978 168.62919291 -24.17700195 159.92114258 C-24.18327878 158.31528074 -24.18992662 156.70942031 -24.19691467 155.1035614 C-24.21779073 149.867228 -24.22829296 144.6308948 -24.23828125 139.39453125 C-24.24233323 137.58500339 -24.24645028 135.77547567 -24.25063133 133.9659481 C-24.26963692 125.47158332 -24.28388456 116.97722704 -24.2922433 108.48284513 C-24.30203631 98.69531615 -24.32842884 88.90801207 -24.36874419 79.12056237 C-24.39890166 71.53814657 -24.41371132 63.95579537 -24.41702431 56.37332076 C-24.41937265 51.85097482 -24.4283071 47.32887048 -24.45348549 42.80658913 C-24.47676876 38.55716047 -24.48099857 34.30813262 -24.47072411 30.05865669 C-24.47022891 28.50223201 -24.47654462 26.94578752 -24.49028015 25.38942337 C-24.61211356 10.76386447 -24.61211356 10.76386447 -20 5 C-13.71884893 -0.68294621 -8.30867407 -0.87146999 0 0 Z " fill="#040B0C" transform="translate(156,360)"></path>
  <path d="M 0 0 C 0.99 0.34 1.98 0.681 3 1.031 C 14.03 5.196 22.764 11.715 30 21 C 32.982 19.679 34.797 18.316 36.938 15.875 C 44.219 8.39 54.098 3.144 64 0 C 64.902 -0.298 65.805 -0.596 66.734 -0.902 C 86.408 -6.432 106.939 -3.485 124.781 6.039 C 138.119 14.165 146.72 27.12 151 42 C 151.263 42.888 151.527 43.777 151.798 44.692 C 154.91 56.91 154.473 69.28 154.469 81.805 C 154.476 84.299 154.484 86.793 154.492 89.288 C 154.505 94.49 154.507 99.693 154.501 104.896 C 154.496 110.226 154.509 115.556 154.542 120.887 C 154.581 127.354 154.596 133.822 154.591 140.29 C 154.593 142.745 154.603 145.2 154.62 147.655 C 154.643 151.084 154.633 154.512 154.615 157.941 C 154.628 158.947 154.642 159.953 154.655 160.989 C 154.577 167.573 153.22 171.887 149 177 C 144.376 181.216 139.752 181.345 133.727 181.281 C 128.598 180.752 125.972 178.103 122.688 174.375 C 120.396 171.15 119.875 169.528 119.869 165.633 C 119.863 164.256 119.863 164.256 119.857 162.851 C 119.857 161.336 119.857 161.336 119.858 159.79 C 119.855 158.728 119.851 157.666 119.848 156.571 C 119.84 154.257 119.835 151.943 119.831 149.629 C 119.824 145.958 119.809 142.287 119.79 138.617 C 119.738 128.176 119.69 117.736 119.674 107.295 C 119.664 100.913 119.635 94.53 119.593 88.148 C 119.58 85.722 119.575 83.296 119.578 80.87 C 119.895 62.76 119.855 58.365 115.624 47.65 C 114.163 43.95 111.4 41.558 109 38 C 100.9 30.119 90.726 28.695 79.926 28.685 C 69.458 28.863 61.449 32.578 54 40 C 43.095 53.234 43.579 68.313 43.65 84.576 C 43.664 88.019 43.658 91.462 43.646 94.906 C 43.615 104.687 43.62 114.469 43.64 124.25 C 43.651 130.256 43.637 136.262 43.61 142.268 C 43.604 144.547 43.608 146.827 43.622 149.106 C 43.641 152.291 43.63 155.474 43.612 158.659 C 43.632 160.058 43.632 160.058 43.652 161.486 C 43.572 167.869 42.038 172.028 38 177 C 33.376 181.216 28.752 181.345 22.727 181.281 C 17.598 180.752 14.972 178.103 11.688 174.375 C 9.396 171.15 8.875 169.528 8.869 165.633 C 8.865 164.715 8.861 163.797 8.857 162.851 C 8.857 161.841 8.858 160.831 8.858 159.79 C 8.855 158.728 8.851 157.666 8.848 156.571 C 8.84 154.257 8.835 151.943 8.831 149.629 C 8.824 145.958 8.809 142.287 8.79 138.617 C 8.738 128.176 8.69 117.736 8.674 107.295 C 8.664 100.913 8.635 94.53 8.593 88.148 C 8.58 85.722 8.575 83.296 8.578 80.87 C 8.984 57.696 6.238 44.576 -2 38 C -10.102 30.117 -20.271 28.703 -31.072 28.683 C -41.029 28.845 -48.689 32.21 -56 39 C -67.43 51.051 -67.706 64.278 -67.592 79.995 C -67.566 83.54 -67.571 87.084 -67.583 90.628 C -67.604 98.148 -67.585 105.668 -67.562 113.188 C -67.541 121.918 -67.537 130.648 -67.563 139.378 C -67.566 142.859 -67.545 146.34 -67.523 149.822 C -67.525 151.966 -67.529 154.11 -67.533 156.255 C -67.521 157.213 -67.508 158.172 -67.494 159.16 C -67.541 165.486 -68.702 170.541 -72 176 C -75.985 179.888 -79.249 181.148 -84.75 181.25 C -89.651 181.186 -92.754 180.463 -97 178 C -101.427 173.34 -102.124 169.873 -102.167 163.581 C -102.173 162.927 -102.179 162.272 -102.185 161.598 C -102.203 159.401 -102.214 157.204 -102.225 155.007 C -102.236 153.433 -102.247 151.86 -102.259 150.286 C -102.296 145.114 -102.321 139.942 -102.344 134.77 C -102.348 133.889 -102.352 133.009 -102.356 132.102 C -102.392 123.799 -102.424 115.496 -102.445 107.193 C -102.472 96.577 -102.523 85.961 -102.605 75.345 C -102.661 67.879 -102.69 60.412 -102.699 52.945 C -102.702 50.759 -101.823 38.415 -97.155 30.501 C -92.305 22.28 -81.258 11.329 -80.876 11.024 C -61.584 -3.964 -23.831 -8.59 0 0 Z" fill="#040B0C" transform="translate(469,439)"></path>
  <path d="M0 0 C3.54856557 2.80234679 6.79875173 5.80956675 10 9 C10.639375 9.61617188 11.27875 10.23234375 11.9375 10.8671875 C23.65297444 23.05337296 27.48462401 39.23071507 27.35400391 55.63720703 C27.17299279 62.42448218 26.28576738 68.57588764 24 75 C23.6596875 75.99128906 23.319375 76.98257813 22.96875 78.00390625 C17.1537573 93.38613356 6.61966477 104.84579127 -8.23828125 111.80859375 C-9.14964844 112.20175781 -10.06101562 112.59492187 -11 113 C-12.19689453 113.54333984 -12.19689453 113.54333984 -13.41796875 114.09765625 C-24.88316596 118.10440444 -42.11562404 117.89304016 -53.3125 113.3125 C-54.199375 112.879375 -55.08625 112.44625 -56 112 C-56.99 111.525625 -57.98 111.05125 -59 110.5625 C-74.26344301 102.46353024 -83.62406882 89.63416954 -89.2734375 73.5703125 C-94.01309876 56.80312374 -92.51945072 37.27935379 -84.390625 21.96875 C-82.7239179 19.18580787 -80.94308561 16.59622363 -79 14 C-78.42765625 13.22140625 -77.8553125 12.4428125 -77.265625 11.640625 C-59.18214404 -10.77052662 -24.00716889 -16.05912486 0 0 Z " fill="#EDCD29" transform="translate(794,475)"></path>
  <path d="M0 0 C12.1079819 10.30976677 20.15713435 25.1306793 21.4375 41 C22.38448166 60.02772452 19.56544009 77.03875844 7.109375 92.20703125 C0.05182504 99.7757589 -7.04594004 104.89455334 -16.5625 109 C-17.75939453 109.54333984 -17.75939453 109.54333984 -18.98046875 110.09765625 C-30.44743087 114.10502123 -47.67014554 113.88919734 -58.87109375 109.31640625 C-59.75925781 108.88199219 -60.64742187 108.44757813 -61.5625 108 C-62.56410156 107.51402344 -63.56570312 107.02804687 -64.59765625 106.52734375 C-81.52199045 97.47678324 -89.81624456 83.59439776 -95.5625 66 C-96.85369592 61.29362908 -96.71024842 56.59541325 -96.6875 51.75 C-96.69136719 50.94175781 -96.69523438 50.13351562 -96.69921875 49.30078125 C-96.6718969 32.22462231 -91.45401483 16.79442325 -79.734375 4.01171875 C-72.47834345 -2.70924572 -64.04637942 -8.10036795 -54.5625 -11 C-53.510625 -11.33451172 -53.510625 -11.33451172 -52.4375 -11.67578125 C-34.32947532 -16.56894233 -14.62957228 -11.05300557 0 0 Z " fill="#EDCD29" transform="translate(261.5625,479)"></path>
</svg><style>@media (prefers-color-scheme: light) { :root { filter: none; } }
@media (prefers-color-scheme: dark) { :root { filter: none; } }
</style></svg>